<svg width="16" height="16" fill="none" xmlns="http://www.w3.org/2000/svg"><path d="M12.036 2.984V1.23h.829a.375.375 0 100-.75H2.883a.375.375 0 100 .75h.828v1.754a4 4 0 001.217 2.853l2.398 2.319-2.292 2.157a3.979 3.979 0 00-1.248 2.896v1.521h-.903a.375.375 0 100 .75h9.982a.375.375 0 100-.75h-.791v-1.493a3.983 3.983 0 00-1.294-2.931L8.422 8.152l2.398-2.315a4 4 0 001.216-2.853zm-.712 10.253v1.493H4.536v-1.52c0-.89.366-1.74 1.013-2.35l2.33-2.19 2.396 2.19a3.23 3.23 0 011.049 2.377zm-3.45-5.6L5.45 5.299a3.247 3.247 0 01-.989-2.314V1.23h6.825v1.754a3.248 3.248 0 01-.988 2.314l-2.424 2.34z" fill="red"/></svg>