<?xml version="1.0" standalone="no"?>
<!DOCTYPE svg PUBLIC "-//W3C//DTD SVG 20010904//EN"
 "http://www.w3.org/TR/2001/REC-SVG-20010904/DTD/svg10.dtd">
<svg version="1.0" xmlns="http://www.w3.org/2000/svg"
 width="700.000000pt" height="700.000000pt" viewBox="0 0 700.000000 700.000000"
 preserveAspectRatio="xMidYMid meet">
<metadata>
Created by potrace 1.14, written by Peter Selinger 2001-2017
</metadata>
<g transform="translate(0.000000,700.000000) scale(0.100000,-0.100000)"
fill="#000000" stroke="none">
<path d="M3283 6052 l-53 -3 0 -675 c0 -370 -2 -674 -4 -674 -3 0 -17 5 -33
11 -55 21 -254 69 -370 89 -153 26 -268 35 -483 34 -389 0 -659 -49 -930 -169
-324 -143 -603 -414 -772 -750 -41 -80 -100 -247 -91 -255 4 -5 55 -22 113
-40 58 -17 114 -35 125 -39 11 -5 65 -22 120 -39 105 -32 459 -144 534 -168
54 -18 67 -14 76 24 8 37 61 126 110 187 45 54 139 127 215 165 75 38 228 87
325 104 101 18 283 19 400 1 246 -38 380 -123 472 -302 39 -78 80 -220 70
-246 -3 -7 -55 -20 -128 -31 -68 -11 -131 -21 -139 -22 -15 -3 -77 -12 -140
-20 -19 -3 -60 -9 -90 -14 -30 -5 -73 -11 -95 -15 -22 -3 -51 -7 -65 -10 -14
-2 -43 -7 -65 -10 -22 -3 -65 -10 -95 -15 -30 -5 -71 -12 -90 -15 -141 -23
-474 -89 -525 -105 -16 -5 -41 -11 -55 -14 -104 -19 -395 -122 -512 -181 -421
-211 -651 -526 -705 -965 -12 -97 -8 -386 6 -455 7 -33 14 -71 17 -85 20 -107
96 -286 169 -395 208 -311 524 -494 950 -552 78 -10 428 -10 525 0 333 35 582
125 810 292 88 64 109 83 228 202 62 62 114 113 115 113 1 0 2 -140 2 -310
l-1 -310 467 0 467 0 0 865 c0 476 2 868 4 870 2 3 26 -26 53 -63 155 -215
462 -642 484 -674 14 -20 118 -164 230 -320 113 -155 268 -372 345 -480 l141
-197 598 -1 598 0 -83 108 c-46 59 -222 289 -393 511 -170 222 -325 422 -343
445 -37 47 -33 42 -97 126 -62 81 -58 76 -100 130 -73 93 -281 364 -336 438
l-48 63 147 202 c80 111 193 267 250 347 189 261 213 294 293 405 44 61 150
207 235 325 85 118 206 287 269 374 63 88 115 160 115 161 0 1 -254 1 -565 1
l-565 -1 -305 -435 c-168 -239 -316 -448 -328 -465 -12 -16 -61 -86 -109 -155
-48 -69 -94 -134 -102 -145 -8 -11 -98 -139 -200 -284 l-186 -264 0 1886 c0
1502 -3 1887 -12 1888 -34 3 -820 4 -865 1z m-188 -3761 c-3 -76 -8 -154 -10
-172 -33 -260 -107 -411 -293 -593 -200 -195 -441 -295 -727 -300 -226 -4
-387 41 -503 139 -43 37 -90 110 -112 175 -19 55 -21 80 -18 161 4 81 10 107
35 160 50 106 139 184 302 264 69 34 171 74 201 80 3 1 32 9 65 19 33 10 67
19 75 21 8 2 74 17 145 33 72 17 146 33 166 36 20 3 42 7 50 10 8 3 32 7 54
10 22 3 103 17 180 31 77 14 158 29 180 32 22 3 66 11 98 17 31 6 71 13 87 14
l31 2 -6 -139z"/>
</g>
</svg>
