<svg xmlns="http://www.w3.org/2000/svg" width="50" height="13" viewBox="0 0 13.229 3.439"><path d="M.928 3.387q-.273 0-.465-.096-.188-.099-.286-.26Q.08 2.867.08 2.67q0-.164.054-.3.054-.135.175-.238.122-.104.327-.174.142-.048.338-.086.196-.037.443-.07l.545-.076-.23.118q0-.21-.11-.308-.108-.098-.363-.098-.141 0-.295.063-.153.063-.214.225l-.58-.17q.096-.292.363-.475T1.26.898q.337 0 .6.097.261.096.395.331.076.13.09.261.014.131.014.294v1.44h-.562v-.484l.08.1q-.185.238-.403.345-.215.105-.545.105zm.137-.468q.177 0 .297-.057.123-.058.193-.132.075-.075.1-.125.049-.096.056-.223.01-.129.01-.214l.189.044q-.286.044-.463.074-.177.028-.285.052-.109.024-.191.053-.095.035-.153.076-.058.04-.086.088-.026.048-.026.106 0 .082.043.14.045.057.125.087.08.031.191.031zm1.624.402V.111h.642v3.21zm2.257.066q-.392 0-.691-.155-.297-.159-.467-.43-.167-.276-.167-.63 0-.386.165-.672.164-.286.456-.443.29-.16.668-.16.401 0 .68.175.282.175.417.491.133.317.093.745h-.634v-.22q0-.359-.125-.516-.123-.16-.403-.16-.329 0-.483.186-.155.183-.155.543 0 .33.154.512.156.178.456.178.188 0 .322-.076t.206-.22l.64.17q-.143.323-.454.502-.309.179-.677.179zm-.844-1.08v-.44h1.689v.44z"/><path d="M5.991 3.321l.91-1.192L6.01.963h.755l.51.699.5-.7h.754L7.637 2.13l.916 1.192h-.754l-.524-.725-.528.725z"/><path d="M8.864 3.321L8.866.177h.35v1.921L10.351.964h.463L9.62 2.142l1.35 1.179h-.506l-1.25-1.135v1.135z" fill="#126dff"/><path d="M11.983 3.387q-.38 0-.65-.16-.269-.16-.412-.441-.144-.282-.144-.646 0-.372.146-.651.147-.28.415-.435.272-.156.644-.156.382 0 .651.16.271.156.413.438.144.28.144.644 0 .37-.144.653-.144.279-.416.437-.27.156-.648.156zm0-.308q.423 0 .631-.26.208-.262.208-.68 0-.427-.21-.68-.208-.253-.63-.253-.285 0-.472.12-.183.118-.275.33-.089.208-.089.484 0 .426.211.683.213.256.625.256z" fill="#126dff"/></svg>