<svg xmlns="http://www.w3.org/2000/svg" width="67.3" height="18.9" viewBox="0 0 17.806 5"><path d="M1.222 4.948q-.368 0-.626-.14Q.342 4.665.21 4.43q-.13-.238-.13-.524 0-.238.073-.435t.235-.346q.165-.152.441-.254.19-.07.454-.124.264-.054.597-.101l.733-.112-.31.172q0-.305-.147-.448-.146-.143-.489-.143-.19 0-.397.092-.206.092-.288.327L.2 2.288q.13-.426.49-.692.358-.267.977-.267.454 0 .807.14.352.14.533.482.102.19.12.38.02.19.02.427v2.095H2.39v-.705l.108.146q-.25.346-.543.502-.289.152-.733.152zm.184-.68q.238 0 .4-.083.165-.085.26-.193.1-.108.134-.181.066-.14.076-.324.013-.188.013-.311l.254.063q-.385.064-.623.108-.238.04-.384.076-.146.035-.257.077-.127.05-.206.11-.077.058-.115.128-.035.07-.035.155 0 .118.058.203.06.083.168.127.108.045.257.045zm2.186.584V.185h.864v4.667zm3.038.096q-.527 0-.93-.226-.4-.23-.629-.626-.225-.4-.225-.914 0-.562.222-.978.222-.416.614-.644.39-.232.9-.232.54 0 .916.254.378.254.56.714.18.46.126 1.083H7.33V3.06q0-.523-.168-.752-.166-.232-.543-.232-.442 0-.65.27-.208.267-.208.79 0 .48.207.744.21.26.613.26.254 0 .434-.111.181-.111.277-.32l.863.247q-.193.47-.612.73-.416.26-.912.26zm-1.136-1.57v-.64h2.273v.64z"/><path d="M8.037 4.852l1.225-1.733-1.2-1.696h1.016l.686 1.016.673-1.016h1.016l-1.2 1.696 1.232 1.733H10.47l-.705-1.054-.71 1.054z"/><path d="M11.904 4.852L11.907.28h.47v2.794l1.53-1.65h.623l-1.608 1.714 1.816 1.714h-.68l-1.682-1.65v1.65z" fill="#126dff"/><path d="M16.102 4.948q-.512 0-.874-.232t-.555-.642q-.194-.41-.194-.94 0-.54.197-.946.197-.406.558-.632.366-.228.867-.228.515 0 .877.232.365.228.555.638.194.406.194.936 0 .54-.194.95-.194.406-.559.635-.365.228-.873.228zm0-.448q.57 0 .85-.378.28-.381.28-.988 0-.622-.283-.99-.28-.368-.848-.368-.384 0-.635.174-.247.172-.37.48-.12.304-.12.704 0 .62.284.994.286.372.841.372z" fill="#126dff"/></svg>