<svg xmlns="http://www.w3.org/2000/svg" width="16" height="16" fill="none"><defs><filter id="a" x="-.24" width="1.48" y="-.24" height="1.48" color-interpolation-filters="sRGB"><feGaussianBlur stdDeviation="1.189"/></filter></defs><path overflow="visible" font-weight="400" d="M3.066 2.85a1 1 0 00-.722 1.708L6.586 8.8l-4.242 4.242a1 1 0 001.414 1.414L8 10.214l4.242 4.242a1 1 0 001.414-1.414L9.414 8.8l4.242-4.242a1 1 0 00-1.414-1.414L8 7.386 3.758 3.144a1 1 0 00-.692-.293z" transform="matrix(.9 0 0 .9 .9 .4)" color="#000" font-family="sans-serif" fill="#000" fill-opacity=".1" paint-order="stroke fill markers" filter="url(#a)"/><path d="M3.066 2.05a1 1 0 00-.722 1.708L6.586 8l-4.242 4.242a1 1 0 001.414 1.414L8 9.414l4.242 4.242a1 1 0 001.414-1.414L9.414 8l4.242-4.242a1 1 0 00-1.414-1.414L8 6.586 3.758 2.344a1 1 0 00-.692-.293z" color="#000" font-weight="400" font-family="sans-serif" overflow="visible" fill="#fff" paint-order="stroke fill markers"/></svg>